<?xml version="1.0" encoding="UTF-8"?>
<svg version="1.1" xmlns="http://www.w3.org/2000/svg" width="1920" height="1260">
<path d="M0 0 C214.12730608 -0.02014604 214.12730608 -0.02014604 273.37100689 -0.02508167 C276.82600253 -0.0253696 280.28099817 -0.02565756 283.73599381 -0.02594624 C364.48961979 -0.03269284 445.2432458 -0.03806236 525.99687195 -0.04234314 C528.62046275 -0.04248259 531.24405355 -0.04262204 533.86764435 -0.04276149 C588.26073059 -0.04564825 642.65381683 -0.04833955 697.0469031 -0.05078693 C699.10914896 -0.05087972 701.17139482 -0.05097252 703.23364069 -0.05106533 C703.91476427 -0.05109598 704.59588785 -0.05112663 705.29765154 -0.05115821 C730.90665672 -0.05231115 756.51566189 -0.05350853 782.12466707 -0.05473244 C784.90696377 -0.05486537 787.68926048 -0.05499779 790.47155719 -0.05512976 C856.07214341 -0.05824154 921.67272945 -0.06214674 987.27331543 -0.06866455 C987.96266556 -0.06873299 988.65201569 -0.06880142 989.36225522 -0.06887193 C1012.28319476 -0.07114865 1035.2041343 -0.07350318 1058.12507384 -0.07586844 C1078.83611801 -0.07800542 1099.54716218 -0.08011444 1120.25820637 -0.08213139 C1120.93870137 -0.08219767 1121.61919636 -0.08226395 1122.32031242 -0.08233224 C1165.00280594 -0.08648228 1207.6852994 -0.08941855 1250.36779308 -0.09113979 C1251.02801139 -0.09116658 1251.6882297 -0.09119336 1252.36845462 -0.09122096 C1282.02905095 -0.09242325 1311.68964728 -0.09334824 1341.35024362 -0.09400098 C1353.01972711 -0.09426257 1364.68921059 -0.0945632 1376.35869408 -0.09487724 C1377.63579961 -0.09491067 1378.91290514 -0.0949441 1380.22871085 -0.09497854 C1421.25079877 -0.09607162 1462.2728856 -0.1003312 1503.29497308 -0.10628221 C1544.68156479 -0.1122714 1586.06815545 -0.11509256 1627.45474761 -0.11362399 C1633.19833719 -0.11342096 1638.94192677 -0.11325356 1644.68551636 -0.11310768 C1646.37410074 -0.11306286 1646.37410074 -0.11306286 1648.09679793 -0.11301713 C1665.7880298 -0.11263925 1683.47925939 -0.11559644 1701.17049064 -0.12000986 C1718.64720036 -0.12429907 1736.1239072 -0.12490754 1753.6006172 -0.12183181 C1762.91653251 -0.12028825 1772.23244104 -0.1202066 1781.5483555 -0.12488318 C1826.3752323 -0.14642374 1871.18021727 0.17438989 1916 1 C1916.6059464 13.64789674 1917.1509114 26.26630787 1917.12584114 38.93076897 C1917.12689026 40.27897989 1917.12837586 41.62719053 1917.13024551 42.97540057 C1917.13406685 46.61154519 1917.13184897 50.24766253 1917.12846755 53.88380661 C1917.12589569 57.86543763 1917.12920442 61.84706495 1917.13171089 65.82869542 C1917.13529839 72.78387008 1917.13522804 79.73903696 1917.13266373 86.69421196 C1917.12886118 97.03611991 1917.13082521 107.37802137 1917.13387203 117.71992928 C1917.13912176 136.19070078 1917.13868808 154.66146881 1917.13579312 173.13224063 C1917.13327424 189.28292525 1917.13262244 205.43360859 1917.13381577 221.58429337 C1917.13389215 222.65698598 1917.13396854 223.7296786 1917.13404724 224.83487706 C1917.13435858 229.18940969 1917.13467698 233.54394233 1917.135007 237.89847496 C1917.13806198 278.69445126 1917.13529804 319.49042534 1917.1299101 360.2864013 C1917.12515745 396.54835725 1917.12559584 432.8103097 1917.13037109 469.07226562 C1917.13572027 509.82844062 1917.13785277 550.58461367 1917.13475883 591.34078896 C1917.13443811 595.68041046 1917.13412527 600.02003197 1917.13381577 604.35965347 C1917.13373669 605.42815816 1917.13365761 606.49666285 1917.13357614 607.59754648 C1917.13243715 623.7551751 1917.1337716 639.91280232 1917.13629532 656.07043076 C1917.13914702 674.41925213 1917.13845557 692.76806949 1917.13301457 711.11689036 C1917.1300677 721.3947781 1917.12990187 731.67265717 1917.13366075 741.9505447 C1917.1358911 748.80195767 1917.13452956 755.65336365 1917.13015598 762.50477558 C1917.12776109 766.41676948 1917.12699696 770.32874606 1917.13056196 774.24073945 C1917.13434986 778.43975304 1917.13052585 782.63872348 1917.12584114 786.83773613 C1917.12818231 788.07190234 1917.13052347 789.30606855 1917.13293558 790.57763374 C1917.13043207 791.68488618 1917.12792855 792.79213863 1917.12534916 793.93294418 C1917.12524753 795.37561099 1917.12524753 795.37561099 1917.12514383 796.84742259 C1917 799 1917 799 1916 800 C1914.64434288 800.11953066 1913.28266276 800.17169474 1911.92196655 800.19618225 C1911.04086212 800.21438522 1910.15975769 800.2325882 1909.25195312 800.25134277 C1908.27597168 800.26644897 1907.29999023 800.28155518 1906.29443359 800.29711914 C1905.27072662 800.31677231 1904.24701965 800.33642548 1903.19229126 800.35667419 C1899.7610778 800.42114569 1896.32978551 800.47832851 1892.8984375 800.53515625 C1890.47571302 800.57827879 1888.05299377 800.62169534 1885.63027954 800.66539001 C1880.50015161 800.75676904 1875.36997763 800.84457299 1870.23974609 800.92993164 C1863.84333069 801.03661437 1857.44710318 801.15169125 1851.05088425 801.26949501 C1816.36341114 801.9034573 1781.69277685 802.13013967 1747 802 C1748.43180253 798.3124297 1750.06262347 795.08261623 1752.15234375 791.71875 C1752.76400391 790.71070313 1753.37566406 789.70265625 1754.00585938 788.6640625 C1755.27867901 786.57916077 1756.56230875 784.50081449 1757.85742188 782.4296875 C1763.75519025 772.6310818 1766.37392605 762.38316269 1767 751 C1767.05285156 750.0615625 1767.10570312 749.123125 1767.16015625 748.15625 C1767.85016807 723.91583487 1758.91187233 701.90720549 1742.42553711 684.26586914 C1728.58359015 670.19223801 1708.0679804 659.07372591 1688.17114258 657.74414062 C1681.45931511 657.80025176 1675.1349827 659.76316028 1668.69921875 661.5 C1667.33189837 661.859825 1665.96428272 662.21852967 1664.59638977 662.57617188 C1661.01984942 663.5137689 1657.44668399 664.46358961 1653.87432861 665.41699219 C1648.14096053 666.94550629 1642.40330198 668.45770798 1636.66434669 669.96508789 C1634.66665783 670.49210172 1632.67087667 671.02590903 1630.67521667 671.56054688 C1629.4632814 671.88087891 1628.25134613 672.20121094 1627.00268555 672.53125 C1625.9372905 672.81548828 1624.87189545 673.09972656 1623.7742157 673.39257812 C1621 674 1621 674 1617 674 C1617.0721875 673.18402344 1617.144375 672.36804688 1617.21875 671.52734375 C1618.406126 656.37180847 1619.43041629 640.60645934 1616.4375 625.62109375 C1615.95145566 622.7091674 1615.93076316 619.94689283 1616 617 C1615.40287826 616.95857905 1614.80575653 616.9171581 1614.19054019 616.87448198 C1607.65057442 616.3324352 1601.57904253 615.02531164 1595.24685669 613.34806824 C1561.15868052 604.74805007 1528.42113598 602.11188637 1493.36538249 602.01513408 C1485.93035845 601.99213353 1478.49652361 601.90010195 1471.06210817 601.80659308 C1457.7164353 601.64040533 1444.37084593 601.52367074 1431.02441406 601.44067383 C1418.29719442 601.36141111 1405.570515 601.25939208 1392.84375 601.12524414 C1392.0616691 601.11701522 1391.2795882 601.10878629 1390.47380787 601.10030801 C1386.5379312 601.05875056 1382.60206005 601.01669599 1378.66619205 600.9743253 C1370.89918488 600.89071421 1363.13215969 600.80890053 1355.3651123 600.72911072 C1354.22498189 600.71738721 1354.22498189 600.71738721 1353.06181854 600.70542686 C1341.68655416 600.58929885 1330.31124698 600.49613278 1318.93566895 600.41700745 C1313.12182365 600.37609574 1307.30798055 600.33488097 1301.49414062 600.29321289 C1300.79232103 600.28821788 1300.09050144 600.28322286 1299.36741459 600.27807648 C1281.85136828 600.15236831 1264.34414488 599.92687132 1246.83398438 599.43920898 C1203.88797496 598.27760723 1162.07655304 600.93324023 1119.3738457 605.60870391 C1109.84436436 606.65058808 1100.30903819 607.63511945 1090.7734375 608.61914062 C1087.39077547 608.96827729 1084.00813888 609.3176576 1080.62554932 609.66749573 C1079.80738243 609.7520878 1078.98921555 609.83667987 1078.14625573 609.92383534 C1073.36319499 610.4197496 1068.58132509 610.92561024 1063.8003993 611.44169796 C1060.86555807 611.75846961 1057.93038525 612.07210882 1054.99520111 612.38568497 C1053.00892467 612.5993881 1051.02318754 612.81808586 1049.03747559 613.03697205 C1042.64748552 613.71852224 1036.42626539 614.15415277 1030 614 C1030.06184479 614.84261446 1030.12368958 615.68522892 1030.18740845 616.55337715 C1031.69537699 637.10374955 1033.1976977 657.65452811 1034.69381714 678.20576668 C1035.41747833 688.14437964 1036.14301514 698.08284888 1036.87304688 708.02099609 C1037.50970987 716.68815217 1038.14277282 725.3555626 1038.77160454 734.02329051 C1039.10435308 738.60814103 1039.4388415 743.19284892 1039.77764893 747.77725601 C1040.09724387 752.10247519 1040.411982 756.42802186 1040.72318268 760.75385284 C1040.83751486 762.33163295 1040.95353978 763.90929158 1041.07149506 765.48680496 C1041.23389767 767.66236553 1041.38985093 769.83830641 1041.54443359 772.01443481 C1041.63292572 773.2256708 1041.72141785 774.43690678 1041.81259155 775.68484688 C1042.15800408 781.78138291 1042.03514169 787.89637743 1042 794 C934.14066403 794.0533395 826.28129204 794.08817974 472.12817383 793.42602539 C463.45367137 793.38491086 454.77916847 793.34389235 446.10466504 793.30298495 C442.34162098 793.28518314 438.57857778 793.26720761 434.81553459 793.24922371 C387.0515405 793.02218088 339.28741802 792.88869804 291.52304737 792.76937488 C284.31383263 792.75136099 277.10461854 792.73310662 269.89540482 792.71469307 C232.12078463 792.61823976 194.34616395 792.52258668 156.57151227 792.43923811 C140.32053863 792.40333126 124.06957558 792.36410406 107.81861746 792.32174891 C98.06615693 792.29646536 88.31369893 792.27403742 78.56122302 792.25559263 C71.97133584 792.24288239 65.38146279 792.22671328 58.79159034 792.20786228 C55.03124385 792.1972116 51.27091045 792.18801607 47.51055169 792.18311512 C43.43138735 792.17776729 39.35227809 792.16491143 35.27313232 792.15148926 C34.12836162 792.15119341 32.98359092 792.15089756 31.8041302 792.15059274 C21.15989091 792.10442312 10.6700812 791.5080991 0 791 C0 529.97 0 268.94 0 0 Z " fill="#000000" transform="translate(0,0)"/>
<path d="M0 0 C0.69665771 0.268125 1.39331543 0.53625 2.11108398 0.8125 C8.32956694 3.29960665 13.84330103 6.47561638 19.25 10.4375 C19.90355469 10.89640625 20.55710937 11.3553125 21.23046875 11.828125 C30.21817212 18.73258587 35.16175556 29.52673169 37.25 40.4375 C39.00111632 57.38902806 33.74602828 72.24134019 23.4375 85.5625 C19.34788726 90.48416446 14.96172415 95.10661069 10.25 99.4375 C9.73636902 99.96487259 9.22273804 100.49224518 8.69354248 101.03559875 C4.93136657 103.19402209 1.33832024 102.83069006 -2.92480469 102.77807617 C-3.851978 102.77851425 -4.77915131 102.77895233 -5.73442078 102.77940369 C-8.79712019 102.77731472 -11.85927129 102.75397828 -14.921875 102.73046875 C-17.0460785 102.72487319 -19.17028587 102.7206029 -21.29449463 102.71760559 C-26.88412168 102.70615373 -32.4735147 102.67668341 -38.06304932 102.64349365 C-43.76726109 102.61280025 -49.47151069 102.5991018 -55.17578125 102.58398438 C-66.3672903 102.5518142 -77.55862568 102.50061356 -88.75 102.4375 C-88.59615848 101.00197092 -88.44070533 99.5666145 -88.28457642 98.1313324 C-88.19818216 97.33200004 -88.11178791 96.53266768 -88.02277565 95.70911312 C-87.44376118 90.88721331 -86.2708676 86.21245549 -85.125 81.5 C-84.90199219 80.46037109 -84.67898438 79.42074219 -84.44921875 78.34960938 C-83.75509761 75.52721734 -83.06144666 73.03183926 -81.75 70.4375 C-78.44140625 68.78515625 -78.44140625 68.78515625 -74.75 68.4375 C-73.11224609 68.23253906 -73.11224609 68.23253906 -71.44140625 68.0234375 C-69.89259766 67.91902344 -69.89259766 67.91902344 -68.3125 67.8125 C-67.26191406 67.73773437 -66.21132812 67.66296875 -65.12890625 67.5859375 C-63.95134766 67.51246094 -63.95134766 67.51246094 -62.75 67.4375 C-62.72873047 66.37789062 -62.72873047 66.37789062 -62.70703125 65.296875 C-61.79863529 45.75408617 -55.97849283 25.93899124 -43.5 10.6875 C-37.36428062 5.66736596 -29.88323571 2.9844907 -22.5625 0.125 C-21.89758545 -0.14175537 -21.2326709 -0.40851074 -20.54760742 -0.68334961 C-13.03346347 -3.52156992 -7.34210265 -2.8770808 0 0 Z " fill="#000000" transform="translate(1691.75,694.5625)"/>
</svg>
